<mxfile host="app.diagrams.net" modified="2023-11-27T19:16:07.467Z" agent="Mozilla/5.0 (Macintosh; Intel Mac OS X 10_15_7) AppleWebKit/537.36 (KHTML, like Gecko) Chrome/119.0.0.0 Safari/537.36" version="22.1.4" etag="MMTCp5OQ7Zdet5FDLtKS" type="github">
  <diagram name="PÃ¡gina-1" id="AJWxOjH_5_OktmNJ9hGk">
    <mxGraphModel>
      <root>
        <mxCell id="0" />
        <mxCell id="1" parent="0" />
      </root>
    </mxGraphModel>
  </diagram>
</mxfile>
